<svg width="1280" height="640" viewBox="0 0 1280 640" fill="none" xmlns="http://www.w3.org/2000/svg">
  <defs>
    <linearGradient id="bg" x1="0" y1="0" x2="1280" y2="640" gradientUnits="userSpaceOnUse">
      <stop stop-color="#020617"/>
      <stop offset="0.55" stop-color="#0F172A"/>
      <stop offset="1" stop-color="#1E3A8A"/>
    </linearGradient>
    <linearGradient id="card" x1="330" y1="120" x2="980" y2="540" gradientUnits="userSpaceOnUse">
      <stop stop-color="#111827"/>
      <stop offset="1" stop-color="#0B1220"/>
    </linearGradient>
    <filter id="shadow" x="282" y="84" width="716" height="500" filterUnits="userSpaceOnUse" color-interpolation-filters="sRGB">
      <feDropShadow dx="0" dy="24" stdDeviation="36" flood-color="#000000" flood-opacity="0.4"/>
    </filter>
  </defs>
  <rect width="1280" height="640" fill="url(#bg)"/>
  <circle cx="1050" cy="112" r="180" fill="#3B82F6" opacity="0.16"/>
  <circle cx="180" cy="540" r="220" fill="#8B5CF6" opacity="0.12"/>
  <g filter="url(#shadow)">
    <rect x="320" y="110" width="640" height="420" rx="36" fill="url(#card)" stroke="#334155" stroke-width="2"/>
    <rect x="360" y="150" width="230" height="230" rx="24" fill="#172033" stroke="#334155"/>
    <path d="M420 290C420 232 464 190 522 190C572 190 616 224 626 272C638 331 590 358 520 352C456 346 420 330 420 290Z" fill="#60A5FA"/>
    <path d="M434 292C448 252 482 224 520 224C553 224 584 243 600 272C579 261 557 268 540 288C514 319 469 317 434 292Z" fill="#93C5FD" opacity="0.85"/>
    <rect x="620" y="155" width="96" height="28" rx="14" fill="#1D4ED8"/>
    <text x="668" y="175" text-anchor="middle" font-family="Segoe UI, Arial, sans-serif" font-size="15" font-weight="700" fill="#DBEAFE">AI/ML</text>
    <text x="620" y="230" font-family="Segoe UI, Arial, sans-serif" font-size="52" font-weight="800" fill="#F8FAFC">Grad Hub</text>
    <text x="620" y="276" font-family="Segoe UI, Arial, sans-serif" font-size="26" font-weight="600" fill="#93C5FD">Bilingual graduation project discovery</text>
    <text x="620" y="320" font-family="Segoe UI, Arial, sans-serif" font-size="22" fill="#CBD5E1">Swipe ideas, learn preferences, save history,</text>
    <text x="620" y="352" font-family="Segoe UI, Arial, sans-serif" font-size="22" fill="#CBD5E1">and open richer project research sources.</text>
    <rect x="620" y="400" width="110" height="34" rx="17" fill="#064E3B"/>
    <text x="675" y="423" text-anchor="middle" font-family="Segoe UI, Arial, sans-serif" font-size="16" font-weight="700" fill="#A7F3D0">React</text>
    <rect x="744" y="400" width="120" height="34" rx="17" fill="#312E81"/>
    <text x="804" y="423" text-anchor="middle" font-family="Segoe UI, Arial, sans-serif" font-size="16" font-weight="700" fill="#DDD6FE">Express</text>
    <rect x="620" y="448" width="244" height="34" rx="17" fill="#7C2D12"/>
    <text x="742" y="471" text-anchor="middle" font-family="Segoe UI, Arial, sans-serif" font-size="16" font-weight="700" fill="#FED7AA">Arabic + English UX</text>
  </g>
  <text x="640" y="590" text-anchor="middle" font-family="Segoe UI, Arial, sans-serif" font-size="24" fill="#BFDBFE">,1'/ G(  'C*4A AC1) E41H9 *.1,C (0C'!</text>
</svg>
